# xmcd CD database file
# Copyright (C) 1993-1998 Ti Kan
#
# Track frame offsets:
#	150
#	26018
#	42708
#	81385
#	100228
#	135273
#	139975
#	181805
#
# Disc length: 2662 seconds
#
# Revision: 1
# Processed by: cddbd v1.4b41PL1 Copyright (c) Steve Scherf et al.
# Submitted via: CDValet v3.30 - Copyright (c) 1997 Greg Leichner
#
DISCID=6b0a6408
DTITLE=Manhattan Jazz Quintet /David Mathews Sting Orchestra - 
DTITLE=Bed Time Eyes
DYEAR=1900
DGENRE=
TTITLE0=Theme From Bed Time Eyes
TTITLE1=Love For Sale
TTITLE2=Ballad
TTITLE3=Theme From Bed Time Eyes
TTITLE4=Love For sale
TTITLE5=Spoon Comes Back
TTITLE6=Mood Piece
TTITLE7=Theme From Bed Time Eyes
EXTD=
EXTT0=
EXTT1=
EXTT2=
EXTT3=
EXTT4=
EXTT5=
EXTT6=
EXTT7=
PLAYORDER=
